<svg xmlns="http://www.w3.org/2000/svg" xmlns:xlink="http://www.w3.org/1999/xlink" width="64" height="64" viewBox="0 0 64 64"><defs><clipPath id="a"><rect width="64" height="64" transform="translate(409 1060)" fill="none"/></clipPath></defs><g transform="translate(-409 -1060)" clip-path="url(#a)"><path d="M23.116,23.943h-.522V22.555h.522a.691.691,0,0,1,.689.689.7.7,0,0,1-.689.7m-.03-1.889H22.1v2.391h.984a1.2,1.2,0,1,0,0-2.391M12.419,17.6H9.634A3.394,3.394,0,0,1,6.269,14.23V4.9A3.377,3.377,0,0,1,9.634,1.545h2.785ZM13.816,0H9.634a4.9,4.9,0,0,0-4.9,4.9V14.23a4.9,4.9,0,0,0,4.9,4.9h4.182a.143.143,0,0,0,.148-.138V.138A.143.143,0,0,0,13.816,0m6.259,24.444V22.053h-.482v1.565l-1.171-1.565H17.94v2.391h.482v-1.6l1.181,1.6h.472ZM14.3,26.619h1.447v3.553h.964V26.619h1.417v-.955H14.3Zm6.957-.1a1.437,1.437,0,0,1,1.24.7l.728-.64a2.4,2.4,0,0,0-4.4,1.338,2.413,2.413,0,0,0,2.4,2.411,2.383,2.383,0,0,0,2-1.063l-.728-.64a1.459,1.459,0,0,1-1.24.7,1.4,1.4,0,1,1,0-2.8m8.374,3.07-.148.423-.148-.423h-.157v.571h.108v-.443l.148.443h.1l.157-.443v.443h.1v-.571Zm-1.023.118h.187v.463h.118v-.463h.177v-.118h-.482ZM27.3,27.436H25.192V25.665h-.935v4.507h.935v-1.8H27.3v1.8h.935V25.665H27.3Zm-.167-3.444a.746.746,0,0,1-.738-.748.743.743,0,0,1,1.486,0,.748.748,0,0,1-.748.748m0-2.017a1.274,1.274,0,1,0,1.279,1.269,1.273,1.273,0,0,0-1.279-1.269M15.952,24H14.584v-.561h1.269v-.433H14.584v-.522h1.368v-.433h-1.86v2.391l1.86-.01ZM7.705,5.737a1.8,1.8,0,1,0,1.8-1.8,1.8,1.8,0,0,0-1.8,1.8M2.1,27.436h-.03c-.551-.1-1.023-.187-1.063-.5a.3.3,0,0,1,.079-.256A1.359,1.359,0,0,1,2.1,26.413a3.826,3.826,0,0,1,1.378.315L3.8,25.95A4.862,4.862,0,0,0,2.047,25.6c-.974,0-2.008.482-2.008,1.358,0,.718.5,1.082,1.8,1.3.905.157,1.407.246,1.4.64-.01.216-.177.581-1.2.581A3.216,3.216,0,0,1,.423,29.05L0,29.817a4.384,4.384,0,0,0,1.968.482c1.437,0,2.194-.5,2.194-1.447,0-.669-.344-1.112-2.067-1.417M.679,22.84l1.191,1.6h.472V22.053H1.86v1.565L.679,22.053H.2v2.391H.679Zm4-.787H4.143v2.391h.531ZM19.662,8.591a1.934,1.934,0,1,1-1.939,1.929,1.932,1.932,0,0,1,1.939-1.929M16.011,19.13h2.952a4.9,4.9,0,0,0,4.9-4.9V4.9a4.9,4.9,0,0,0-4.9-4.9H16a.122.122,0,0,0-.128.118V18.993a.135.135,0,0,0,.138.138m-6.78,9.8-.955-3.267H7.469l-.945,3.257-.866-3.257H4.674l1.279,4.507H7.036L7.873,27.2l.836,2.972H9.8l1.279-4.507H10.1Zm3.12-6.879H10.323v.5h.768v1.889H11.6V22.555h.748Zm-5.393.787,1.191,1.6h.472V22.053H8.138v1.565L6.957,22.053H6.475v2.391h.482ZM12.2,30.172h1V25.665h-1Z" transform="translate(426.571 1077)" fill="#bbb"/></g></svg>