<svg xmlns="http://www.w3.org/2000/svg" xmlns:xlink="http://www.w3.org/1999/xlink" width="64" height="64" viewBox="0 0 64 64"><defs><clipPath id="a"><rect width="64" height="64" transform="translate(201 1060)" fill="#bbb"/></clipPath></defs><g transform="translate(-201 -1060)" clip-path="url(#a)"><g transform="translate(201 1085.332)"><path d="M63.921,3.062H23.007v8.282H64V3.062Zm-1.68,7.273h.716v.106h-.3v.817h-.125v-.817h-.3Z" fill="none"/><path d="M62.537,11.258h.125v-.817h.3v-.106h-.716v.106h.3Z" fill="#bbb"/><path d="M63.921,3.062H23.007v8.282H64V3.062Zm-.849,7.273h.172l.267.788.259-.788h.151v.923h-.1v-.75l-.249.75h-.124l-.249-.75v.75h-.125v-.923Z" fill="none"/><path d="M63.2,10.508l.249.75h.124l.249-.75v.75h.1v-.923h-.15l-.259.788-.267-.788h-.172v.923H63.2Zm-20.52-1.46V5.234c0-.778.363-1.335,1.138-1.335h4.778a.062.062,0,0,0,.057-.058V3.081a.054.054,0,0,0,0-.019H42.8a2.031,2.031,0,0,0-1.885,2.171V9.048c0,.778-.373,1.335-1.138,1.335H34.735a.055.055,0,0,0-.057.058V11.2a.066.066,0,0,0,.042.064h5.729a2.091,2.091,0,0,0,2.228-2.216Zm-19.63,2.216h1.678a.066.066,0,0,0,.042-.063V8.769c0-.778.44-1.316,1.08-1.316h6.91a2.093,2.093,0,0,0,2.313-2.219,2.03,2.03,0,0,0-1.885-2.171H23.015c0,.006-.008.011-.008.019V3.84a.051.051,0,0,0,.057.058h9.108c.774,0,1.137.557,1.137,1.335s-.363,1.336-1.137,1.336H24.967a2.047,2.047,0,0,0-1.959,2.2V11.2a.06.06,0,0,0,.039.063Z" fill="#bbb"/><path d="M50.1,9.5H57.8a.062.062,0,0,0,.057-.058V4.705a.087.087,0,0,0-.144-.077L50.055,9.365c-.049.029-.068.058-.057.1.009.019.038.038.1.038Z" fill="none"/><path d="M48.622,10.384H57.8a.043.043,0,0,1,.047.038V11.2a.055.055,0,0,0,.057.058h1.654a.055.055,0,0,0,.057-.058v-.759a.062.062,0,0,1,.057-.058h1.644a.055.055,0,0,0,.057-.058V9.557a.055.055,0,0,0-.057-.058H59.67a.062.062,0,0,1-.057-.058V3.9c0-.452-.168-.741-.451-.836h-.478a1.838,1.838,0,0,0-.485.211l-9.882,6.1c-.382.24-.516.509-.421.711.076.173.3.3.727.3Zm1.433-1.019,7.655-4.737a.087.087,0,0,1,.144.077V9.442A.062.062,0,0,1,57.8,9.5H50.1c-.066,0-.1-.019-.1-.038-.01-.039.009-.067.057-.1Z" fill="#bbb"/><path d="M6.41,0c.745.139,1.478.337,2.208.544.417.121.833.246,1.246.38a9,9,0,0,1,1.884.79,3.715,3.715,0,0,1,.733.561,2.794,2.794,0,0,1,.567.8,4.419,4.419,0,0,1,.37,1.722,5.268,5.268,0,0,1-.06,1.15,2.7,2.7,0,0,1-.342.94,1.7,1.7,0,0,1-.634.612,1.676,1.676,0,0,1-.825.195,2.9,2.9,0,0,1-1.242-.314c-.007-1.292,0-2.584,0-3.876a3.682,3.682,0,0,0-.034-.7.821.821,0,0,0-.246-.48A.715.715,0,0,0,9.7,2.161a.343.343,0,0,0-.329.127.931.931,0,0,0-.165.563q0,5.188,0,10.377l-2.791-.886q0-6.171,0-12.342ZM2.228,8.753c1.213-.429,2.425-.863,3.639-1.291,0,.476,0,.953,0,1.429a1.727,1.727,0,0,1,0,.194c-.959.34-1.917.686-2.875,1.028a1.028,1.028,0,0,0-.372.208.181.181,0,0,0-.061.186.33.33,0,0,0,.19.157,1.985,1.985,0,0,0,.664.108,3.727,3.727,0,0,0,.745-.077,3.061,3.061,0,0,0,.482-.147c.41-.148.819-.3,1.229-.444,0,.4,0,.806,0,1.209,0,.081,0,.162,0,.242a9.491,9.491,0,0,1-1.525.16,9.1,9.1,0,0,1-3.043-.459,2.745,2.745,0,0,1-.908-.421A1.032,1.032,0,0,1,.039,10.4a.6.6,0,0,1,.018-.467.891.891,0,0,1,.316-.347,5.307,5.307,0,0,1,.969-.508c.29-.123.591-.22.886-.327Z" fill="#bbb"/><path d="M11.989,8.211c.275-.032.552-.039.829-.049a9.121,9.121,0,0,1,2.7.39c.171.052.336.119.506.173a2.558,2.558,0,0,1,.85.463.738.738,0,0,1,.273.517.644.644,0,0,1-.175.449,2.476,2.476,0,0,1-.75.527,8.325,8.325,0,0,1-.907.356l-5.578,2c0-.521,0-1.042,0-1.562,0-.021-.009-.057.021-.063Q11.874,10.662,14,9.9a1.948,1.948,0,0,0,.56-.253.21.21,0,0,0,.1-.225.337.337,0,0,0-.19-.154,1.951,1.951,0,0,0-.668-.106,3.337,3.337,0,0,0-1.044.159c-1.008.353-2.014.711-3.022,1.063q0-.839,0-1.677a10.4,10.4,0,0,1,2.257-.5Zm4.134,3.853a.64.64,0,1,1-.515.386.646.646,0,0,1,.515-.386Zm-.048.118a.532.532,0,0,0-.167.964.531.531,0,0,0,.8-.589.543.543,0,0,0-.263-.329.534.534,0,0,0-.369-.047Z" fill="#bbb"/><path d="M15.922,12.331h.344a.249.249,0,0,1,.182.066.226.226,0,0,1,.037.194c-.007.043-.045.069-.073.1.024.021.055.041.06.076a1.673,1.673,0,0,0,.02.2.16.16,0,0,1,.028.074H16.38c-.032-.076-.008-.16-.028-.238a.072.072,0,0,0-.072-.05c-.078,0-.156,0-.233,0,0,.1,0,.193,0,.29h-.122c0-.237,0-.473,0-.71Zm.124.112v.2h.208a.119.119,0,0,0,.1-.036.124.124,0,0,0,0-.125.1.1,0,0,0-.087-.035c-.074,0-.147,0-.221,0Z" fill="#bbb"/></g></g></svg>