<svg xmlns="http://www.w3.org/2000/svg" xmlns:xlink="http://www.w3.org/1999/xlink" width="64" height="64" viewBox="0 0 64 64"><defs><clipPath id="a"><rect width="64" height="64" transform="translate(112 1060)" fill="#bbb"/></clipPath></defs><g transform="translate(-112 -1060)" clip-path="url(#a)"><g transform="translate(145.866 1076.282)"><path d="M10.023,11.341a2.366,2.366,0,0,0-2.366,2.366v4.037a1.337,1.337,0,0,1-1.338,1.337H1.765v1H7.181a2.366,2.366,0,0,0,2.366-2.366V13.681a1.337,1.337,0,0,1,1.338-1.337h4.639v-1Z" fill="#bbb" fill-rule="evenodd"/><path d="M-10.388,11.341v1H-.875A1.373,1.373,0,0,1,.5,13.716,1.373,1.373,0,0,1-.875,15.089H-8.022a2.366,2.366,0,0,0-2.366,2.366v2.629H-8.5V17.429A1.337,1.337,0,0,1-7.16,16.091H.013a2.375,2.375,0,0,0,0-4.75Z" fill="#bbb" fill-rule="evenodd"/><path d="M17.346,11.341v3.265a1.486,1.486,0,0,0,1.486,1.486h7.916a1.5,1.5,0,1,1,0,2.99h-9.4v1h10.29a2.5,2.5,0,0,0,0-4.995h-7.8a.6.6,0,0,1-.6-.6V12.343H29.791v-1Z" fill="#bbb" fill-rule="evenodd"/><path d="M-26.869,8.5V21.97l3.049.968v-11.3c0-.528.236-.883.617-.759.5.138.594.625.594,1.154v4.513c1.9.917,3.4,0,3.4-2.422,0-2.485-.875-3.587-3.456-4.476a36.762,36.762,0,0,0-4.2-1.149" fill="#bbb"/><path d="M-23.243,20.97l4.9-1.748c.556-.2.642-.482.19-.629a3.33,3.33,0,0,0-1.825.094l-3.268,1.152V18.006l.188-.063a11.191,11.191,0,0,1,2.271-.482,9.7,9.7,0,0,1,4.229.5c1.439.455,1.6,1.124,1.236,1.584a3.512,3.512,0,0,1-1.261.791l-6.663,2.393Z" fill="#bbb"/><path d="M-32.461,20.783c-1.476-.416-1.722-1.28-1.05-1.779a7.224,7.224,0,0,1,1.681-.808l4.37-1.553v1.77l-3.145,1.126c-.556.2-.64.482-.19.628a3.3,3.3,0,0,0,1.827-.094l1.509-.547v1.585l-.3.049a9.892,9.892,0,0,1-4.7-.378" fill="#bbb"/></g></g></svg>