<svg xmlns="http://www.w3.org/2000/svg" xmlns:xlink="http://www.w3.org/1999/xlink" width="64" height="64" viewBox="0 0 64 64"><defs><clipPath id="a"><rect width="64" height="64" transform="translate(14 1060)" fill="#fff" stroke="#707070" stroke-width="1"/></clipPath></defs><g transform="translate(-14 -1060)" clip-path="url(#a)"><g transform="translate(27.81 1073.292)"><path d="M48.643,10.276c0,2.355-.007,4.709.007,7.057,0,.318-.08.451-.4.411a1.383,1.383,0,0,0-.166,0q-6.128.03-12.263.066c-1.333.007-2.673.02-4.006.046-.325.007-.438-.086-.438-.431q.02-5.9,0-11.8c0-.338.073-.478.444-.517,1.492-.179,2.971-.391,4.457-.6,2.056-.292,4.106-.6,6.155-.889,1.957-.279,3.913-.537,5.87-.816.312-.046.345.086.345.345C48.643,5.521,48.643,7.9,48.643,10.276Z" transform="translate(-14.691)" fill="#bbb"/><path d="M15.243,14.273v5.837c0,.424,0,.424-.438.424-.809.007-1.612.007-2.421.013q-4.855.03-9.71.066c-.471,0-.471.007-.471-.458V10.24c0-.458.007-.438.458-.5,1.167-.159,2.335-.338,3.5-.5.9-.126,1.8-.232,2.693-.352,1.8-.245,3.608-.5,5.405-.756a5.175,5.175,0,0,1,.783-.113c.139,0,.206.046.2.192-.007.113,0,.219,0,.332Zm-.206-.04c0-1.9-.007-3.8.007-5.7,0-.279-.1-.338-.345-.325-.206.013-.365.133-.57.146-.438.027-.869.106-1.307.166-.856.119-1.718.226-2.567.358A6.522,6.522,0,0,0,8.7,9.159a.354.354,0,0,1-.259.027,1.29,1.29,0,0,0-.809.046,16.675,16.675,0,0,1-1.9.285c-.531.073-1.061.179-1.6.2-.451.013-.856.245-1.32.226-.4-.02-.451.053-.451.464V19.95c0,.431.046.464.478.471,2.116.033,4.238-.1,6.354-.073,1.764.02,3.535.007,5.3,0,.511,0,.537-.02.537-.55C15.037,17.941,15.037,16.09,15.037,14.233Z" transform="translate(-0.007 -2.623)" fill="#bbb"/><path d="M15.236,42.315c0,1.957-.007,3.913.007,5.87,0,.3-.06.4-.378.352-.955-.153-1.917-.285-2.879-.418-.995-.139-1.99-.252-2.985-.4-1.406-.2-2.812-.418-4.225-.617-.743-.106-1.486-.212-2.229-.292-.265-.027-.358-.113-.358-.385q.01-5.054,0-10.115c0-.285.073-.418.378-.365A3.1,3.1,0,0,0,3,35.954q5.949.03,11.9.06c.285,0,.352.093.345.358C15.229,38.355,15.236,40.332,15.236,42.315Zm-.206.007c0-1.857-.013-3.714.007-5.565.007-.484-.212-.557-.57-.557-.544,0-1.081.027-1.632.013-2.427-.066-4.855.046-7.282-.073-.915-.046-1.831-.007-2.752-.007-.4,0-.451.053-.451.464v9.577c0,.431.066.471.491.511a19.214,19.214,0,0,1,1.957.239c.809.153,1.625.239,2.441.352.424.06.862.073,1.267.172.577.133,1.161.172,1.738.265.63.106,1.28.186,1.923.252a24.051,24.051,0,0,1,2.467.365c.265.06.391-.02.391-.338C15.024,46.1,15.03,44.2,15.03,42.321Z" transform="translate(0 -16.677)" fill="#bbb"/><path d="M48.663,43.759v7.03c0,.511,0,.517-.524.444-1.247-.179-2.487-.365-3.734-.537-1.718-.239-3.436-.464-5.147-.71-1.625-.226-3.257-.458-4.882-.7-.9-.139-1.817-.212-2.719-.378-.285-.053-.292-.179-.292-.391V36.543c0-.4.013-.431.438-.424,5.512.093,11.023.093,16.535.119.279,0,.325.113.325.352q0,3.591,0,7.17Zm-.113-.066v-7c0-.133.027-.272-.179-.285-.232-.013-.458-.053-.69-.06-2.308-.04-4.616,0-6.924-.053-2.925-.066-5.856-.02-8.788-.02-.464,0-.464,0-.464.451v11.01c0,.265.007.531,0,.8-.007.2.08.265.279.279.318.02.63.093.948.1.55.013,1.074.206,1.632.232.537.027,1.068.1,1.6.166a15.34,15.34,0,0,0,1.884.272c.71.007,1.386.226,2.089.265.657.04,1.3.192,1.95.285.769.106,1.545.186,2.315.312.6.1,1.194.146,1.791.226a9.829,9.829,0,0,0,1.864.2c.046,0,.1.046.146.066.385.166.55.06.55-.365Z" transform="translate(-14.684 -16.769)" fill="#bbb"/><path d="M15.205,14.433V20c0,.531-.02.55-.537.55-1.764,0-3.535.02-5.3,0-2.122-.027-4.238.1-6.354.073-.431-.007-.478-.046-.478-.471V10.606c0-.411.053-.484.451-.464.458.027.869-.212,1.32-.226a14.412,14.412,0,0,0,1.6-.2,15.7,15.7,0,0,0,1.9-.285,1.245,1.245,0,0,1,.809-.046.354.354,0,0,0,.259-.027,6.522,6.522,0,0,1,1.552-.279c.856-.133,1.711-.245,2.567-.358.431-.06.869-.139,1.307-.166.206-.013.371-.133.57-.146.252-.013.345.053.345.325C15.205,10.633,15.205,12.529,15.205,14.433Z" transform="translate(-0.175 -2.823)" fill="#bbb"/><path d="M15.205,42.5c0,1.89-.007,3.781.007,5.664,0,.318-.126.4-.391.338a22.355,22.355,0,0,0-2.467-.365c-.643-.073-1.293-.153-1.923-.252-.577-.093-1.161-.133-1.738-.265-.4-.093-.842-.113-1.267-.172-.816-.113-1.632-.2-2.441-.352a19.216,19.216,0,0,0-1.957-.239c-.431-.04-.491-.073-.491-.511V36.768c0-.418.046-.464.451-.464.915,0,1.837-.04,2.752.007,2.427.119,4.855,0,7.282.073.544.013,1.088-.007,1.632-.013.358,0,.577.073.57.557C15.192,38.784,15.205,40.641,15.205,42.5Z" transform="translate(-0.175 -16.854)" fill="#bbb"/><path d="M48.692,43.859v6.9c0,.424-.166.531-.55.365-.053-.02-.1-.066-.146-.066a9.771,9.771,0,0,1-1.864-.2c-.6-.08-1.194-.126-1.791-.225-.769-.133-1.545-.206-2.315-.312-.65-.093-1.3-.245-1.95-.285-.7-.046-1.373-.259-2.089-.265A15.343,15.343,0,0,1,36.1,49.5c-.531-.073-1.068-.139-1.6-.166-.55-.027-1.074-.219-1.632-.232-.318-.007-.63-.08-.948-.1-.192-.013-.279-.086-.279-.279.007-.265,0-.531,0-.8V36.915c0-.451,0-.451.464-.451,2.932,0,5.856-.046,8.788.02,2.308.053,4.616.013,6.924.053.232.007.458.046.69.06.206.007.179.153.179.285v6.977Z" transform="translate(-14.825 -16.935)" fill="#bbb"/></g></g></svg>