<svg xmlns="http://www.w3.org/2000/svg" xmlns:xlink="http://www.w3.org/1999/xlink" width="64" height="64" viewBox="0 0 64 64"><defs><clipPath id="a"><rect width="64" height="64" transform="translate(299 1060)" fill="#bbb"/></clipPath></defs><g transform="translate(-299 -1060)" clip-path="url(#a)"><g transform="translate(299 1085.625)"><path d="M40.946,10.3,38.5,6.983,36.063,10.3H35.057l2.937-4.006L35.312,2.652h1.005L38.5,5.621l2.186-2.97h1l-2.68,3.641L41.951,10.3Zm-19.037,0-2.94-4.005,2.682-3.641H20.646L18.459,5.622,16.275,2.652h-1l2.681,3.641L15.014,10.3H16.02l2.44-3.314L20.9,10.3Z" fill="#bbb"/><path d="M27.5,6.582a2.143,2.143,0,0,0-.5-.319,1.733,1.733,0,0,0,.92-1.532c0-.489-.18-2.08-2.486-2.08H22.326v3.3H21.292c-.134.175-.439.6-.555.767h1.589V10.3h3.106c1.682,0,2.727-.854,2.727-2.233a1.887,1.887,0,0,0-.66-1.484M23.185,3.449h2.247c.608,0,1.627.151,1.627,1.215,0,.8-.593,1.284-1.627,1.284H23.185v-2.5ZM25.431,9.5H23.184V6.717h2.247c.852,0,1.871.235,1.871,1.332C27.3,9.312,26.13,9.5,25.431,9.5M32.2,2.475a3.668,3.668,0,0,0-3.649,4,3.668,3.668,0,0,0,3.649,4c2.146,0,3.643-1.641,3.643-4s-1.5-4-3.643-4m0,7.184c-1.637,0-2.784-1.312-2.784-3.188S30.562,3.283,32.2,3.283s2.774,1.311,2.774,3.188S33.833,9.659,32.2,9.659M1.9,1.833,1.9,1.838h0a6.373,6.373,0,0,0-.593,8.4.028.028,0,0,0,.034.011.026.026,0,0,0,.007-.033c-.486-1.5,2-5.145,3.282-6.672a.033.033,0,0,0,.009-.019A.029.029,0,0,0,4.623,3.5C2.465,1.354,1.888,1.845,1.9,1.838m8.951-.005.006.005h0a6.374,6.374,0,0,1,.592,8.4.028.028,0,0,1-.034.011.027.027,0,0,1-.007-.033c.486-1.5-2-5.148-3.279-6.675a.03.03,0,0,1-.009-.018A.027.027,0,0,1,8.128,3.5c2.16-2.149,2.732-1.654,2.725-1.661M6.375,0A6.284,6.284,0,0,1,9.7.933a.024.024,0,0,1,.011.032.024.024,0,0,1-.031.011c-1.234-.267-3.11.8-3.287.906a.02.02,0,0,1-.027,0c-.471-.27-2.2-1.179-3.3-.9a.024.024,0,0,1-.02-.043A6.278,6.278,0,0,1,6.375,0m0,5.113a.036.036,0,0,1,.02.01c1.908,1.45,5.172,5.036,4.176,6.05h0a6.371,6.371,0,0,1-8.392,0h0c-.995-1.014,2.269-4.6,4.175-6.05a.042.042,0,0,1,.022-.01M56.791,2.652V8.927l-4.623-6.28H51.41v7.641h.851V4.15l4.528,6.141h.853V2.652Zm-9.8-.178a3.669,3.669,0,0,0-3.65,4,3.671,3.671,0,0,0,3.65,4c2.146,0,3.643-1.644,3.643-4s-1.5-4-3.643-4m0,7.185c-1.637,0-2.784-1.312-2.784-3.19s1.147-3.188,2.784-3.188,2.774,1.312,2.774,3.188-1.14,3.19-2.774,3.19m12.463-.115V6.717h4.207V5.969H59.454V3.393h4.493V2.646H58.6v7.646H64V9.544Z" fill="#bbb"/></g></g></svg>