<svg xmlns="http://www.w3.org/2000/svg" xmlns:xlink="http://www.w3.org/1999/xlink" width="64" height="64" viewBox="0 0 64 64"><defs><clipPath id="a"><rect width="64" height="64" transform="translate(490 1060)" fill="#bbb"/></clipPath></defs><g transform="translate(-490 -1060)" clip-path="url(#a)"><g transform="translate(489.719 1059.609)"><g transform="translate(23.548 16.391)"><path d="M16,.391a6.762,6.762,0,0,0-3.621,1.022c-.017,0-.018.017-.018.035s.018.018.035.018c1.351-.295,3.4.866,3.586.987h.035c.191-.121,2.235-1.282,3.586-.987.017,0,.035,0,.035-.018s0-.035-.017-.035A6.763,6.763,0,0,0,16,.391Zm4.647,1.953c-.344.02-1.143.286-2.741,1.859l-.017.017a.017.017,0,0,0,.017.018c1.4,1.663,4.106,5.631,3.586,7.276v.035c.017,0,.035,0,.035-.017a6.945,6.945,0,0,0-.641-9.148c-.017-.017-.018-.017-.035-.017a.514.514,0,0,0-.2-.022Zm-9.3.007a.483.483,0,0,0-.215.032c-.017,0-.017.017-.035.017a6.968,6.968,0,0,0-.624,9.148c0,.017.017.017.035.017s.017-.017,0-.035C9.973,9.885,12.693,5.918,14.1,4.255l.018-.017c0-.017,0-.018-.018-.018-1.6-1.585-2.4-1.855-2.748-1.868ZM16,5.97a.017.017,0,0,0-.017.017c-2.079,1.577-5.648,5.492-4.556,6.6a6.955,6.955,0,0,0,9.147,0c1.074-1.109-2.477-5.024-4.556-6.6A.017.017,0,0,0,16,5.97Zm4.193,10.308a4.587,4.587,0,0,0-1.663.294,3.581,3.581,0,0,0-1.3.9,4.014,4.014,0,0,0-.849,1.4,5.772,5.772,0,0,0,0,3.534,3.941,3.941,0,0,0,.849,1.386,3.9,3.9,0,0,0,1.3.9,4.587,4.587,0,0,0,1.663.294,4.189,4.189,0,0,0,1.663-.294,3.665,3.665,0,0,0,1.3-.9,4.168,4.168,0,0,0,.832-1.386,5.181,5.181,0,0,0,.277-1.767,5.56,5.56,0,0,0-.277-1.767,3.972,3.972,0,0,0-.832-1.4,3.517,3.517,0,0,0-1.3-.9A4.655,4.655,0,0,0,20.195,16.278ZM.808,16.469l2.893,4L.548,24.819h1.42l2.46-3.378,2.443,3.378h1.42L5.139,20.471l2.911-4H6.629L4.429,19.5l-2.2-3.032Zm8.16,0V20.02H7.877L7.1,21.094H8.968v3.725h3.9a3.107,3.107,0,0,0,2.079-.641,2.176,2.176,0,0,0,.728-1.732,1.9,1.9,0,0,0-.381-1.2,2.261,2.261,0,0,0-1.057-.78,1.965,1.965,0,0,0,1.092-1.819,2.019,2.019,0,0,0-.676-1.576,2.83,2.83,0,0,0-1.941-.606Zm14.986,0,2.911,4-3.153,4.348h1.421l2.443-3.378,2.46,3.378h1.421l-3.17-4.348,2.911-4H29.775l-2.2,3.032-2.2-3.032Zm-3.759.953a2.557,2.557,0,0,1,2.01.866,3.464,3.464,0,0,1,.745,2.356,3.416,3.416,0,0,1-.745,2.339,2.764,2.764,0,0,1-4.019,0,3.423,3.423,0,0,1-.762-2.339,3.5,3.5,0,0,1,.762-2.356,2.557,2.557,0,0,1,2.01-.866Zm-9.962.138h2.391a1.622,1.622,0,0,1,1.074.312,1.048,1.048,0,0,1,.381.866,1.217,1.217,0,0,1-.364.97,1.553,1.553,0,0,1-1.092.329H10.233Zm0,3.534h2.581a1.77,1.77,0,0,1,1.178.329,1.216,1.216,0,0,1,.4.987,1.186,1.186,0,0,1-.416.97,1.944,1.944,0,0,1-1.178.329H10.233ZM4.1,28.076a1.429,1.429,0,0,0-.866.243.782.782,0,0,0-.312.658.811.811,0,0,0,.26.641,1.632,1.632,0,0,0,.78.346l.277.069a2.176,2.176,0,0,1,.589.208.4.4,0,0,1,.156.329.527.527,0,0,1-.191.416,1.072,1.072,0,0,1-.572.139,1.081,1.081,0,0,1-.675-.191.661.661,0,0,1-.225-.555H2.835a1.061,1.061,0,0,0,.381.884,1.53,1.53,0,0,0,1.022.294,1.556,1.556,0,0,0,.953-.26.9.9,0,0,0,.346-.727.8.8,0,0,0-.26-.624,1.694,1.694,0,0,0-.832-.346l-.294-.069a1.589,1.589,0,0,1-.572-.208.392.392,0,0,1-.156-.346A.385.385,0,0,1,3.6,28.63a.83.83,0,0,1,.5-.121.943.943,0,0,1,.606.156.658.658,0,0,1,.208.468h.52a.974.974,0,0,0-.346-.78,1.491,1.491,0,0,0-.987-.277Zm17.948,0a1.429,1.429,0,0,0-.866.243.782.782,0,0,0-.312.658.811.811,0,0,0,.26.641,1.632,1.632,0,0,0,.78.346l.277.069a2.18,2.18,0,0,1,.589.208.4.4,0,0,1,.156.329.527.527,0,0,1-.191.416,1.07,1.07,0,0,1-.572.139,1.082,1.082,0,0,1-.676-.191.661.661,0,0,1-.225-.555h-.5a1.061,1.061,0,0,0,.381.884,1.53,1.53,0,0,0,1.022.294,1.556,1.556,0,0,0,.953-.26.9.9,0,0,0,.346-.727.678.678,0,0,0-.225-.624,1.694,1.694,0,0,0-.832-.346l-.294-.069a1.589,1.589,0,0,1-.572-.208.392.392,0,0,1-.156-.346.385.385,0,0,1,.173-.346.829.829,0,0,1,.5-.121.943.943,0,0,1,.606.156.659.659,0,0,1,.208.468h.5a.974.974,0,0,0-.346-.78,1.492,1.492,0,0,0-.988-.277Zm-15.142.087v3.343H9.28v-.468H7.409V30.016H9.072v-.433H7.409v-.97H9.28v-.45Zm3.829,0v3.343h.5V30.138h.97a.57.57,0,0,1,.416.138.635.635,0,0,1,.139.45l.017.364a.762.762,0,0,0,.1.433h.52a1.445,1.445,0,0,1-.1-.433l-.035-.52a.866.866,0,0,0-.121-.451A.558.558,0,0,0,12.8,29.9a.7.7,0,0,0,.4-.295.842.842,0,0,0,.156-.52.793.793,0,0,0-.312-.675,1.374,1.374,0,0,0-.849-.243Zm4.123,0v3.343h.5V28.163Zm2.183,0v3.343h2.391v-.468H17.544V30.016h1.663v-.433H17.544v-.97h1.888v-.45Zm9.1,0L27.3,29.756l-1.265,1.75H26.6l.97-1.351.987,1.351h.572l-1.265-1.75,1.161-1.594h-.572l-.883,1.213-.866-1.213ZM11.272,28.6h.9a.771.771,0,0,1,.485.138.507.507,0,0,1,.173.4.536.536,0,0,1-.156.416.619.619,0,0,1-.45.156h-.953Z" transform="translate(-0.548 -0.391)" fill="#bbb"/></g></g></g></svg>